<svg width="390" height="336" viewBox="0 0 390 336" fill="none" xmlns="http://www.w3.org/2000/svg">
<path d="M177.464 100.91C176.214 97.3297 171.744 78.4697 169.254 73.1197C166.764 67.7797 158.124 52.4497 158.124 52.4497L145.934 45.9597L131.564 41.9897L116.404 44.5697L103.254 49.3897L91.4341 62.0697L87.614 75.0597L87.864 91.8997L96.4241 124.65L102.424 120.98L107.414 97.2697L103.754 72.1597L106.604 61.9897L110.234 55.1497L126.534 50.3497L139.014 52.3497L146.644 56.3997L154.574 62.5297L161.384 78.3397L163.634 98.1497L177.464 100.89V100.91Z" fill="#F37B5E"/>
<path d="M108.954 47.8698C102.484 53.1298 99.8241 56.5299 97.9541 61.9099C96.0841 67.2899 95.2241 71.8298 96.1641 79.4598C97.1041 87.0898 98.884 88.8198 98.884 88.8198L86.5841 92.7299L85.9341 79.2198L89.524 64.1898L97.4341 53.7498L104.494 47.8599H108.944L108.954 47.8698Z" fill="#BA5042"/>
<path d="M175.314 101.5C172.614 88.52 169.054 75.29 162.074 63.94C159.334 59.49 156.214 55.62 152.034 52.25C151.614 51.91 151.444 51.78 150.844 51.35C150.314 50.97 149.784 50.61 149.234 50.26C148.204 49.61 147.134 49 146.044 48.46C144.764 47.83 144.244 47.61 142.984 47.15C141.804 46.73 140.604 46.36 139.384 46.07C134.314 44.83 128.634 44.77 123.334 45.5C117.084 46.37 110.794 48.04 105.334 51.07C100.794 53.59 97.024 57.02 94.404 61.34C92.984 63.68 92.164 65.55 91.374 68.07C90.604 70.53 90.034 73.3799 89.784 75.6199C88.324 88.7799 91.4541 102.15 95.1841 114.7C95.7341 116.55 96.314 118.4 96.904 120.23C97.784 122.96 93.484 124.13 92.614 121.41C88.254 107.89 84.4041 93.4499 85.0641 79.1199C85.3341 73.2599 86.4541 67.46 88.9341 62.13C91.2941 57.07 94.9741 52.79 99.4741 49.52C104.754 45.68 111.074 43.42 117.404 42.05C123.464 40.74 129.754 40.1299 135.934 40.9299C141.374 41.6399 146.634 43.36 151.294 46.28C156.004 49.23 159.924 53.19 163.214 57.65C171.144 68.38 175.314 81.71 178.334 94.54C178.784 96.45 179.204 98.37 179.604 100.29C179.844 101.47 179.264 102.7 178.054 103.03C176.954 103.33 175.564 102.66 175.314 101.48V101.5Z" fill="#381515"/>
<path d="M164.374 97.4897C162.354 87.7797 159.714 77.9497 154.834 69.2997C152.834 65.7497 150.754 62.8496 147.834 60.0796C146.394 58.7096 145.444 57.9596 143.784 56.9096C143.024 56.4296 142.234 55.9796 141.424 55.5796C140.444 55.0896 140.154 54.9696 139.264 54.6396C135.484 53.2496 132.174 52.8696 128.184 53.0296C125.884 53.1296 123.954 53.3897 121.724 53.8597C120.574 54.0997 119.434 54.3596 118.314 54.6896C117.344 54.9796 116.664 55.2297 116.004 55.5397C115.204 55.9197 114.424 56.3597 113.684 56.8597C113.514 56.9797 113.344 57.0996 113.174 57.2196C112.964 57.3696 113.174 57.2196 113.214 57.1896C113.134 57.2496 113.054 57.3196 112.974 57.3896C112.634 57.6796 112.294 57.9696 111.964 58.2796C110.614 59.5796 109.964 60.4596 109.034 62.1596C107.334 65.2696 106.434 69.3496 106.144 72.9996C105.294 83.9296 107.854 95.0396 110.924 105.46C111.384 107.04 111.874 108.6 112.384 110.17C113.264 112.9 108.964 114.07 108.094 111.35C104.424 99.9497 101.294 87.8097 101.564 75.7397C101.754 67.2497 103.994 58.1396 111.364 53.0696C115.084 50.5096 119.724 49.5396 124.134 48.9496C128.554 48.3496 133.034 48.3797 137.394 49.4197C145.564 51.3597 152.054 56.8797 156.664 63.7397C162.324 72.1597 165.464 82.2096 167.754 92.0096C168.084 93.4396 168.404 94.8696 168.704 96.3096C168.944 97.4896 168.364 98.7197 167.154 99.0497C166.054 99.3497 164.664 98.6796 164.414 97.4996L164.374 97.4897Z" fill="#381515"/>
<path d="M161.924 293.65C160.984 296.01 159.674 298.21 157.694 299.57L165.414 321.85L171.574 328.31L182.244 322.71L203.464 288.18L161.924 293.65Z" fill="#5798B2"/>
<path d="M197.544 298.07C196.284 302.23 194.504 306.27 192.604 310.18C190.264 314.99 187.574 319.68 184.194 323.84C181.494 327.16 177.454 331.1 172.784 330.6C166.614 329.93 163.314 323.34 161.324 318.21C158.894 311.94 157.004 305.32 155.784 298.71C155.564 297.53 156.104 296.31 157.334 295.97C158.414 295.67 159.854 296.34 160.074 297.52C161.104 303.11 162.674 308.63 164.514 314C165.414 316.64 166.174 318.73 167.524 321.08C168.184 322.23 168.924 323.33 169.854 324.29C170.174 324.61 170.584 325 170.874 325.21C171.254 325.48 171.944 325.86 172.114 325.92C172.334 326 172.564 326.06 172.794 326.12C173.124 326.21 173.034 326.17 173.134 326.18C173.774 326.22 173.844 326.22 174.324 326.1C174.574 326.04 174.824 325.95 175.074 325.87C175.324 325.79 175.004 325.91 174.974 325.92C175.064 325.88 175.154 325.84 175.234 325.8C175.624 325.61 175.994 325.41 176.364 325.18C177.204 324.65 177.514 324.4 178.334 323.63C179.114 322.9 179.844 322.12 180.544 321.3C183.554 317.75 186.004 313.44 188.134 309.22C190.194 305.14 191.934 301.29 193.254 296.9C194.084 294.16 198.384 295.33 197.544 298.08V298.07Z" fill="#034360"/>
<path d="M147.464 302.74C147.374 302.38 147.344 302.03 147.364 301.68L106.914 300.75L113.634 318.29L123.494 332.26L130.924 331.86L142.794 305.43C142.684 304.9 147.624 303.27 147.484 302.74H147.464Z" fill="#5798B2"/>
<path d="M109.054 300.16C110.814 305.67 112.784 311.13 115.234 316.37C116.954 320.03 119.094 324.12 121.494 327.03C121.994 327.63 122.514 328.22 123.074 328.76C123.304 328.98 123.544 329.19 123.784 329.4C123.844 329.46 124.334 329.83 123.894 329.5C124.034 329.6 124.174 329.7 124.314 329.8C124.584 329.98 124.864 330.13 125.144 330.29C125.654 330.58 124.864 330.26 125.424 330.42C125.634 330.48 125.884 330.52 126.084 330.6C126.484 330.76 125.594 330.63 126.014 330.6C126.374 330.56 126.744 330.62 127.104 330.6C128.024 330.54 128.914 330.27 129.774 329.95C129.644 330.02 129.244 330.15 129.774 329.95C130.354 329.6 130.894 329.29 131.384 328.81C132.804 327.43 133.584 325.55 134.224 323.71C136.564 317.01 138.684 310.23 140.734 303.43C141.554 300.69 145.854 301.86 145.024 304.61C143.004 311.32 140.884 318.01 138.604 324.64C137.074 329.08 134.654 333.31 129.844 334.62C127.904 335.15 125.734 335.33 123.834 334.57C122.294 333.95 120.954 332.94 119.784 331.78C116.724 328.75 114.494 324.84 112.564 321.03C109.374 314.73 106.904 308.07 104.764 301.35C103.894 298.61 108.194 297.44 109.054 300.17V300.16Z" fill="#034360"/>
<path d="M207.474 155.35C208.524 155.54 219.074 138.06 219.074 138.06L240.604 126.22H254.224L258.904 140.64L242.254 154.16L229.734 180.28L207.474 155.34V155.35Z" fill="#5798B2"/>
<path d="M212.364 151.71C215.074 146.22 218.764 141.3 223.534 137.43C228.694 133.25 235.224 130.58 241.694 129.29C244.564 128.72 247.804 128.45 250.484 129.05C253.164 129.65 255.064 130.83 256.204 133.51C256.854 135.04 257.104 136.85 256.864 138.5C256.674 139.79 256.104 141.12 255.374 141.93C253.464 144.07 250.414 145.23 247.814 146.7C243.754 149.01 240.254 152.06 237.744 156.02C235.384 159.74 234.014 164.03 233.364 168.37C233.164 169.7 233.694 171.06 235.114 171.45C236.294 171.77 237.994 171.05 238.194 169.7C238.784 165.76 239.914 161.93 242.064 158.55C244.334 154.98 247.594 152.51 251.254 150.52C254.304 148.86 257.524 147.38 259.664 144.54C262.064 141.34 262.454 136.89 261.344 133.13C260.234 129.37 257.794 126.53 254.264 125.04C251.104 123.71 247.554 123.54 244.184 123.9C236.984 124.67 229.634 127.27 223.584 131.26C216.864 135.68 211.594 142.01 208.044 149.2C207.444 150.41 207.714 151.91 208.944 152.62C210.044 153.26 211.764 152.94 212.364 151.72V151.71Z" fill="#034360"/>
<path d="M25.1641 304.22L21.9441 293.78L35.5341 216.26L65.0741 99.4697L102.934 87.3097L149.884 82.6797L197.334 91.2297L205.824 95.4997L217.614 121.37L240.344 190.21L253.664 251.76L256.864 291.45L249.234 300.32L196.794 305.78C196.794 305.78 161.884 310.5 70.1641 309.12C61.0141 308.98 33.5841 307.7 33.5841 307.7L25.1741 304.23L25.1641 304.22Z" fill="#82CCF1"/>
<path d="M65.0741 99.4598C91.9641 113.9 115.604 119.43 130.894 121.82C154.394 125.49 180.614 129.59 196.584 113.94C202.824 107.82 205.634 100.51 207.014 95.4899C192.494 90.0299 168.704 83.1198 138.774 83.4598C105.584 83.8398 79.8041 92.9598 65.0741 99.4698V99.4598Z" fill="#8FDFFF"/>
<path d="M56.274 149.14C65.374 131.28 70.414 113.28 78.034 108.16C85.664 103.04 108.464 93.7699 130.894 92.7299C153.314 91.6899 206.314 93.7899 210.204 98.7599C214.104 103.73 206.594 93.8899 198.524 91.2099C190.454 88.5299 164.544 82.6899 146.484 83.3299C128.424 83.9699 107.354 86.8999 91.264 91.0399C75.174 95.1799 68.5441 95.7599 65.0641 99.4599C61.5841 103.16 52.1741 153.95 49.3141 161.88C46.4541 169.81 56.274 149.14 56.274 149.14Z" fill="#B6EEFF"/>
<path d="M260.344 283.8C260.214 280.06 259.964 276.33 259.634 272.6C258.814 263.25 257.524 253.94 255.964 244.69C254.064 233.33 251.734 222.05 249.084 210.84C246.014 197.84 242.524 184.94 238.664 172.16C234.314 157.77 229.504 143.53 224.254 129.44C221.474 121.98 218.574 114.57 215.544 107.21C214.744 105.27 213.944 103.34 213.134 101.41C212.454 99.7997 211.854 98.1097 210.884 96.6397C209.254 94.1497 206.904 92.2597 204.234 90.9897C201.064 89.4797 197.634 88.5997 194.254 87.6897C190.404 86.6497 186.514 85.7197 182.604 84.8997C174.944 83.3097 167.174 82.1797 159.384 81.5297C144.114 80.2497 128.754 80.9597 113.624 83.3197C105.844 84.5297 98.134 86.1897 90.524 88.2297C86.604 89.2797 82.7141 90.4197 78.8541 91.6597C75.4841 92.7397 72.0141 93.7497 68.8441 95.3397C66.2941 96.6297 63.894 98.4897 62.494 101.04C61.644 102.59 61.274 104.26 60.874 105.97C60.424 107.85 59.974 109.74 59.514 111.62C57.674 119.24 55.794 126.85 53.904 134.45C50.164 149.48 46.3641 164.5 42.7141 179.55C39.0841 194.49 35.6041 209.47 32.4541 224.51C29.2441 239.84 26.384 255.25 24.024 270.74C22.864 278.4 21.8241 286.09 20.9141 293.78C20.3041 299.47 22.9541 305.26 28.0341 308.07C30.6541 309.52 33.424 309.86 36.364 309.99C38.894 310.1 41.4341 310.22 43.9641 310.32C53.9641 310.75 63.9641 311.13 73.9641 311.41C84.1941 311.69 94.414 311.86 104.644 311.87C115.634 311.88 126.634 311.72 137.624 311.39C149.774 311.02 161.914 310.43 174.044 309.66C187.944 308.78 201.834 307.65 215.714 306.35C223.454 305.62 231.184 304.84 238.914 304C245.154 303.33 252.464 303.61 256.774 298.24C260.124 294.06 260.544 288.97 260.364 283.82L260.344 283.8ZM253.434 295.3C252.064 297.01 250.114 298.07 247.944 298.5C246.184 298.85 244.344 298.94 242.554 299.13C240.584 299.35 238.604 299.56 236.634 299.77C222.164 301.31 207.674 302.68 193.164 303.82C180.524 304.81 167.874 305.63 155.204 306.23C143.994 306.76 132.774 307.12 121.544 307.29C115.244 307.38 70.744 306.88 60.874 306.53C55.994 306.36 51.114 306.16 46.234 305.96C43.754 305.86 41.2741 305.75 38.7941 305.64C36.3141 305.53 33.714 305.66 31.364 304.74C26.854 302.98 24.8741 298.38 25.3541 293.77C27.1641 278.42 29.5441 263.15 32.3441 247.95C35.0841 233.05 38.234 218.22 41.624 203.45C44.974 188.83 48.5541 174.26 52.1741 159.71C55.8541 144.94 59.5741 130.18 63.1641 115.39C63.6241 113.51 64.074 111.63 64.524 109.75C64.954 107.96 65.5241 100.87 70.9541 99.2897C70.9441 99.2897 70.9341 99.2697 70.9141 99.2597C70.9141 99.2597 70.9241 99.2597 70.9341 99.2497C73.8641 97.7497 77.124 96.8597 80.254 95.8697C84.044 94.6597 87.8641 93.5397 91.7041 92.5197C106.334 88.6097 121.334 86.1097 136.474 85.4897C151.474 84.8797 166.504 86.1097 181.194 89.1497C184.954 89.9297 188.694 90.8097 192.404 91.7997C195.604 92.6497 198.984 93.3997 201.984 94.8297C204.364 95.9597 206.374 97.5297 207.634 99.8797C209.394 103.18 210.634 106.86 212.044 110.32C217.824 124.5 223.154 138.87 228.024 153.39C232.444 166.57 236.474 179.89 240.084 193.31C243.254 205.12 246.104 217.02 248.544 229C250.554 238.86 252.354 249.13 253.664 258.9C254.724 266.83 255.544 274.81 255.874 282.81C256.044 287.08 256.284 291.74 253.454 295.28L253.434 295.3Z" fill="#034360"/>
<path d="M165.644 138.71C165.184 139.29 164.674 139.8 164.114 140.29C163.774 140.59 164.254 140.22 164.024 140.36C163.874 140.45 163.734 140.56 163.584 140.66C163.284 140.85 162.984 141.02 162.674 141.18C162.614 141.21 162.084 141.43 162.404 141.31C162.724 141.19 162.124 141.41 162.124 141.4C161.804 141.51 161.474 141.6 161.134 141.67C161.064 141.68 160.504 141.78 160.864 141.73C161.224 141.68 160.604 141.75 160.594 141.75C160.254 141.77 159.924 141.77 159.584 141.75C159.454 141.75 159.314 141.73 159.184 141.72C159.794 141.77 159.154 141.7 159.044 141.68C158.674 141.6 158.324 141.49 157.964 141.36C157.774 141.25 157.724 141.28 157.964 141.36C157.784 141.26 157.604 141.18 157.424 141.08C157.174 140.94 156.934 140.78 156.704 140.62C156.374 140.4 156.504 140.6 156.704 140.63C156.624 140.62 156.454 140.42 156.394 140.36C156.204 140.19 156.024 140.02 155.854 139.84C155.714 139.69 155.574 139.53 155.444 139.38C155.004 138.87 155.734 139.77 155.474 139.42C154.704 138.38 153.294 137.75 152.094 138.53C151.064 139.19 150.384 140.8 151.204 141.91C153.204 144.61 155.994 146.37 159.384 146.67C163.094 146.99 166.874 145.05 169.154 142.19C169.954 141.18 170.214 139.66 169.154 138.69C168.254 137.87 166.514 137.61 165.654 138.69L165.644 138.71Z" fill="#034360"/>
<path opacity="0.5" d="M190.504 148.3C195.176 148.3 198.964 144.512 198.964 139.84C198.964 135.168 195.176 131.38 190.504 131.38C185.832 131.38 182.044 135.168 182.044 139.84C182.044 144.512 185.832 148.3 190.504 148.3Z" fill="#EF5286"/>
<path opacity="0.5" d="M118.184 156.27C122.856 156.27 126.644 152.482 126.644 147.81C126.644 143.137 122.856 139.35 118.184 139.35C113.512 139.35 109.724 143.137 109.724 147.81C109.724 152.482 113.512 156.27 118.184 156.27Z" fill="#EF5286"/>
<path d="M137.004 131.86C143.434 131.04 149.644 136.57 149.064 138.25C148.754 139.16 146.594 138.54 138.824 138.92C130.784 139.31 128.434 140.19 127.964 139.19C127.224 137.63 131.564 132.56 136.994 131.87L137.004 131.86Z" fill="#034360"/>
<path d="M175.294 124.97C169.074 126.78 165.594 134.33 166.784 135.64C167.434 136.35 169.174 134.92 176.434 132.16C183.954 129.3 186.464 129.17 186.494 128.07C186.554 126.35 180.544 123.43 175.284 124.96L175.294 124.97Z" fill="#034360"/>
<path d="M181.914 122.59C183.714 122.49 184.964 124.55 184.634 125.51C184.174 126.87 180.214 127.19 179.554 125.95C179.064 125.04 180.034 122.68 181.914 122.58V122.59Z" fill="white"/>
<path d="M143.254 130.82C145.004 130.38 146.624 132.15 146.484 133.17C146.294 134.6 142.474 135.67 141.584 134.59C140.934 133.79 141.424 131.29 143.254 130.83V130.82Z" fill="white"/>
<path d="M149.744 192.98H4.03406V291.49H149.744V192.98Z" fill="#D6A56B"/>
<path d="M149.744 192.98H4.03406L17.874 180.94H140.634L149.744 192.98Z" fill="#F5CF9A"/>
<path d="M85.644 192.69H65.8141V206.81H85.644V192.69Z" fill="#E2DCD5"/>
<path d="M69.8141 180.9H81.644L85.644 193.69H65.8141L69.8141 180.9Z" fill="#EFE9E4"/>
<path d="M5.79407 284.09C5.79407 279.26 5.79407 274.43 5.79407 269.59C5.79407 259.08 5.79407 248.58 5.79407 238.07C5.79407 227.56 5.79407 217.67 5.79407 207.47V198.15C5.79407 195.96 5.55402 193.8 7.24402 192.06C8.73402 190.53 10.254 189.03 11.754 187.52C13.254 186.01 14.794 183.91 16.984 183.49C18.154 183.27 19.4941 183.41 20.6841 183.41H72.864C83.804 183.41 94.7541 183.41 105.694 183.41C113.724 183.41 121.764 183.41 129.794 183.41H135.254C136.014 183.41 136.744 183.43 137.474 183.69C139.374 184.35 140.934 186.48 142.304 187.86C143.674 189.24 145.114 190.66 146.494 192.08C147.554 193.18 147.914 194.52 147.914 195.99C147.914 198.11 147.914 200.24 147.914 202.36C147.914 211.62 147.914 220.89 147.914 230.15V262.96C147.914 269.7 147.914 276.43 147.914 283.17C147.914 283.69 147.954 284.27 147.884 284.79C147.534 287.26 145.394 288.99 142.954 289.03C141.864 289.05 140.764 289.03 139.664 289.03C133.054 289.03 126.444 289.03 119.834 289.03C109.574 289.03 99.3041 289.03 89.0441 289.03C77.8541 289.03 66.6641 289.03 55.4741 289.03C45.9541 289.03 36.4441 289.03 26.9241 289.03C21.8041 289.03 16.6941 289.03 11.5741 289.03C11.3041 289.03 11.024 289.03 10.754 289.03C8.00403 288.98 5.87409 286.85 5.81409 284.1C5.74409 280.92 0.794017 280.91 0.864017 284.1C0.994017 289.87 5.60402 293.97 11.244 293.98C12.924 293.98 14.6141 293.98 16.2941 293.98H71.504C82.754 293.98 94.004 293.98 105.254 293.98C114.154 293.98 123.064 293.98 131.964 293.98C135.634 293.98 139.314 294.05 142.994 293.98C148.844 293.86 152.884 289.16 152.884 283.48V276.63C152.884 267.01 152.884 257.39 152.884 247.77C152.884 236.7 152.884 225.62 152.884 214.55C152.884 208.35 152.904 202.14 152.884 195.94C152.884 193.83 152.384 191.73 151.154 189.98C149.824 188.1 147.964 186.52 146.354 184.9C144.744 183.28 143.204 181.42 141.314 180.12C139.624 178.95 137.584 178.48 135.554 178.47C130.544 178.44 125.524 178.47 120.514 178.47H20.504C18.654 178.47 16.7241 178.34 14.9441 178.93C12.2341 179.82 10.4641 181.83 8.53406 183.77C6.95406 185.36 5.35408 186.92 3.80408 188.54C1.90408 190.52 0.904036 193 0.884036 195.74C0.884036 196.38 0.884036 197.03 0.884036 197.67C0.884036 205.38 0.884036 213.09 0.884036 220.8C0.884036 232.05 0.884036 243.3 0.884036 254.55C0.884036 263.11 0.884036 271.67 0.884036 280.24C0.884036 281.53 0.884036 282.81 0.884036 284.1C0.884036 287.28 5.83411 287.29 5.83411 284.1L5.79407 284.09Z" fill="#895521"/>
<path d="M4.03402 195.46C8.83402 195.46 13.644 195.44 18.444 195.43C29.974 195.41 41.504 195.38 53.034 195.36C66.934 195.33 80.8241 195.3 94.7241 195.27C106.734 195.25 118.744 195.22 130.754 195.2C136.584 195.19 142.454 195.35 148.284 195.16C148.364 195.16 148.454 195.16 148.534 195.16C151.714 195.16 151.724 190.21 148.534 190.21C143.734 190.21 138.924 190.23 134.124 190.24C122.594 190.26 111.064 190.29 99.534 190.31C85.634 190.34 71.7441 190.37 57.8441 190.4C45.8341 190.42 33.824 190.45 21.814 190.47C15.984 190.48 10.114 190.32 4.28402 190.51C4.20402 190.51 4.11402 190.51 4.03402 190.51C0.854015 190.51 0.844015 195.46 4.03402 195.46Z" fill="#895521"/>
<path d="M45.7242 220.38C45.2742 220.55 44.8041 220.65 44.3241 220.69C43.2641 220.81 42.1941 220.88 41.0741 220.98C41.0141 221.51 40.9541 221.93 40.9341 222.35C40.8141 225.09 40.7142 227.84 40.5842 230.58C40.5842 231.17 40.5141 231.76 40.3941 232.34C40.1741 233.25 39.4841 233.72 38.6241 233.65C37.7741 233.59 37.1141 232.89 37.1141 232.04C37.0941 230.64 37.1841 229.24 37.2341 227.84C37.3541 224.47 37.4441 222.03 37.4441 222.03C37.4441 222.03 37.5142 221.37 37.3542 221.34C37.1942 221.31 35.4141 221.35 34.9341 221.49C34.5141 221.6 34.0841 221.63 33.6541 221.6C32.9341 221.55 32.3341 221.02 32.1841 220.31C32.0141 219.52 32.3442 218.78 33.0942 218.44C33.4842 218.27 33.9042 218.16 34.3342 218.12C36.4242 217.9 38.5142 217.69 40.6042 217.5C41.7842 217.39 42.9641 217.31 44.1441 217.26C44.6241 217.23 45.1041 217.27 45.5641 217.39C46.2541 217.58 46.6241 218.15 46.6641 218.84C46.7041 219.53 46.3941 220.12 45.7341 220.39L45.7242 220.38Z" fill="#895521"/>
<path d="M56.5341 231.83C55.7241 232.56 54.774 233.03 53.734 233.37C52.074 233.9 49.9041 233.41 48.5741 231.64C47.7541 230.57 47.2341 229.29 47.0841 227.95C47.0241 227.42 47.024 226.88 46.994 226.34C46.874 224.14 47.0341 222.58 47.7941 220.92C47.9641 220.54 48.1741 220.17 48.4241 219.84C48.9241 219.2 49.5641 218.67 50.2941 218.31C50.5141 218.19 53.9341 216.4 56.6641 217.94C57.8641 218.62 58.704 219.81 58.754 219.87C59.504 220.99 59.934 222.3 59.994 223.66C60.134 226.92 58.9641 229.65 56.5441 231.83H56.5341ZM56.5341 224.24C56.5341 223.3 56.344 222.42 55.774 221.65C54.934 220.51 53.5241 220.27 52.3541 221.08C51.8141 221.45 51.3841 221.92 51.1641 222.56C51.0241 222.97 50.854 223.37 50.774 223.79C50.464 225.27 50.2141 226.75 50.6641 228.25C51.2541 230.23 52.5541 230.65 54.1641 229.32C55.7541 228.01 56.5041 226.28 56.5341 224.24Z" fill="#895521"/>
<path d="M73.9241 228.77C73.4741 229.52 72.8941 230.17 72.2041 230.7C70.2741 232.23 68.044 233 65.624 233.25C64.874 233.33 64.6441 233 63.4541 233.76C62.6241 234.22 61.7041 233.71 61.3941 232.79C61.2541 232.36 61.314 231.94 61.364 231.51C61.874 227.42 62.364 223.33 62.864 219.24C62.914 218.76 63.0041 218.27 63.1341 217.8C63.3041 217.18 63.7441 216.87 64.3841 216.7C65.4941 216.41 66.2941 216.36 67.2641 216.23C68.6641 216.05 69.9641 216.3 71.1441 217.08C72.1541 217.75 72.7141 218.7 72.8041 219.93C72.7641 220.69 72.5141 221.42 72.0941 222.05C71.8641 222.4 71.9541 222.63 72.2541 222.87C72.6741 223.21 73.1141 223.54 73.4741 223.94C74.7041 225.35 74.8641 227.14 73.9241 228.77ZM70.5441 225.32C69.7541 224.71 69.2541 224.68 68.3441 224.86C67.1341 225.1 66.7041 225.28 65.6741 225.5C65.3341 226.81 65.064 228.14 64.864 229.48C64.804 229.85 65.0441 230.05 65.4741 230.01C67.0641 229.84 68.5442 229.36 69.8542 228.41C70.2442 228.12 70.6041 227.79 70.9241 227.42C71.4441 226.81 71.1741 225.8 70.5441 225.32ZM65.8341 222.36C67.1041 221.99 68.194 221.46 69.114 220.6C69.194 220.53 69.2641 220.44 69.3141 220.35C69.4541 220.07 69.4941 219.55 69.2641 219.37C68.2841 218.6 67.2341 219.4 66.3341 219.82C66.1941 219.9 66.0941 220.04 66.0741 220.2C65.9941 220.89 65.7441 221.56 65.8441 222.36H65.8341Z" fill="#895521"/>
<path d="M86.9741 232.39C86.6141 231.57 86.504 231 86.164 230.08L79.9741 230.34C79.3541 231.38 78.824 232.53 77.984 233.41C76.604 234.74 74.3241 233.08 75.1041 231.35C77.0941 227.43 78.8941 223.4 81.0841 219.59C81.4241 219.05 81.834 218.54 82.284 218.08C84.894 215.55 87.014 218.02 87.624 220.76C88.544 224.33 89.744 227.86 90.414 231.48C90.524 233.37 87.8641 234.12 86.9741 232.4V232.39ZM85.124 226.22C84.964 224.8 84.5641 223.43 83.9641 222.14C83.1541 223.51 82.4441 224.94 81.8341 226.42C83.1141 226.39 84.094 226.55 85.134 226.23L85.124 226.22Z" fill="#895521"/>
<path d="M103.084 223.03C102.084 225.67 100.064 227.17 97.4141 227.91C97.3141 227.94 97.2041 227.95 97.0941 227.97C95.5341 228.27 95.6541 228.1 95.5841 229.69C95.5441 230.61 95.524 231.53 95.504 232.45C95.494 232.94 95.4441 233.42 95.2141 233.87C94.9141 234.47 94.274 234.82 93.614 234.73C92.944 234.63 92.4241 234.12 92.3141 233.46C92.2641 232.98 92.2541 232.49 92.2841 232C92.3641 230 92.4541 228 92.5441 226C92.6441 223.73 92.7841 221.46 92.8341 219.19C92.8541 218.13 93.304 217.5 94.244 217.05C95.694 216.35 97.2041 216.04 98.8041 216.19C102.274 216.53 104.334 219.76 103.094 223.03H103.084ZM98.8341 219.49C98.1441 219.33 97.424 219.35 96.734 219.53C96.324 219.63 96.0641 219.88 96.0241 220.31C95.9641 221.07 95.924 221.82 95.864 222.74C95.864 222.91 95.874 223.24 95.864 223.56C95.794 224.94 95.8641 225.06 97.3341 224.53C98.2641 224.19 99.054 223.57 99.614 222.76C99.904 222.37 100.094 221.9 100.154 221.42C100.264 220.43 99.7941 219.72 98.8241 219.49H98.8341Z" fill="#895521"/>
<path d="M116.394 226.61C116.744 230 114.474 233.4 111.184 234.39C109.484 234.9 107.784 235.04 106.084 234.29C105.024 233.82 104.554 233.1 104.614 231.95C104.764 229.16 104.884 226.37 105.014 223.58C105.104 221.74 105.194 219.9 105.284 218.05C105.284 217.79 105.314 217.53 105.364 217.27C105.524 216.58 106.134 216.08 106.844 216.08C107.554 216.08 108.174 216.57 108.354 217.25C108.514 217.87 108.464 218.51 108.424 219.14C108.374 220.03 108.314 220.93 108.274 221.82C108.274 222.07 108.444 222.2 108.694 222.13C108.994 222.05 109.284 221.9 109.584 221.81C112.844 220.88 115.804 222.77 116.354 226.13C116.384 226.29 116.384 226.44 116.404 226.6L116.394 226.61ZM110.544 231.27C112.304 230.58 113.464 228.67 113.224 226.59C113.144 225.91 112.744 225.11 111.784 224.8C110.834 224.5 110.024 224.89 109.354 225.58C108.864 226.08 108.574 226.7 108.354 227.36C108.034 228.32 107.954 229.32 107.894 230.32C107.824 231.6 108.214 231.73 109.324 231.61C109.744 231.54 110.144 231.43 110.544 231.27ZM121.004 217.97C121.004 220.26 121.004 222.42 120.984 224.58C120.984 226.9 120.954 229.22 120.934 231.54C120.934 232.08 120.904 232.62 120.824 233.15C120.704 233.87 120.094 234.41 119.364 234.44C118.584 234.47 117.934 233.94 117.774 233.11C117.714 232.74 117.694 232.36 117.704 231.98C117.704 228.96 117.724 225.93 117.744 222.91C117.744 221.56 117.754 220.21 117.774 218.86C117.774 218.37 117.794 217.89 117.864 217.41C118.014 216.54 118.594 216.07 119.424 216.06C120.214 216.06 120.784 216.57 120.944 217.45C120.984 217.66 120.994 217.88 121.014 217.96L121.004 217.97Z" fill="#895521"/>
<path d="M48.6941 250.1C48.0741 253.19 47.2141 256.2 45.8141 259.03C45.1641 260.35 44.414 261.6 43.414 262.68C42.544 263.65 41.4241 264.37 40.1741 264.77C39.6541 264.94 39.1141 265.01 38.5741 264.98C37.8441 264.95 37.234 264.41 37.114 263.69C37.024 263.03 37.3541 262.38 37.9541 262.07C38.2441 261.92 38.554 261.82 38.874 261.75C39.954 261.56 40.724 260.9 41.384 260.08C41.894 259.46 42.3241 258.78 42.6741 258.06C42.7341 257.93 42.714 257.78 42.624 257.68C42.534 257.57 42.394 257.53 42.254 257.56C42.114 257.6 41.9741 257.66 41.8341 257.68C40.0941 257.98 38.734 257.34 37.914 255.77C37.674 255.29 37.4941 254.78 37.3541 254.25C36.9641 252.82 36.964 251.36 36.984 249.9C36.984 249.74 37.004 249.58 37.034 249.42C37.194 248.6 37.8341 248.03 38.5941 248.03C39.3541 248.03 39.984 248.59 40.144 249.43C40.214 249.8 40.1841 250.18 40.2041 250.56C40.2441 251.26 40.2741 251.97 40.3241 252.67C40.3541 253.21 40.514 253.74 40.774 254.21C40.894 254.43 41.224 254.64 41.754 254.64C42.514 254.68 42.8641 254.29 43.3141 253.81C44.3741 252.68 44.7441 250.87 45.3341 249.46C45.5041 249.06 45.654 248.65 45.894 248.29C46.264 247.77 46.904 247.52 47.534 247.66C48.154 247.81 48.6241 248.32 48.7241 248.95C48.7741 249.33 48.7641 249.71 48.6841 250.08L48.6941 250.1Z" fill="#895521"/>
<path d="M62.8941 261.77C62.6441 262.37 62.2041 262.77 61.6641 263.1C60.2741 263.93 58.6941 264.38 57.0841 264.41C56.2341 264.28 55.3641 264.24 54.5441 264.01C51.7441 263.22 49.6341 260.95 49.5841 257.22C49.5341 253.63 51.1641 250.83 54.3441 249.04C55.5541 248.36 56.8741 248.12 58.2641 248.25C58.8841 248.3 59.4741 248.53 59.9541 248.91C60.6641 249.45 60.9441 250.38 60.6441 251.22C60.3341 252.07 59.6041 252.52 58.5841 252.4C57.9141 252.32 57.2841 252.11 56.5841 252.35C54.2941 253.14 52.8541 256.39 53.8341 258.62C54.1441 259.37 54.7741 259.95 55.5441 260.18C56.8441 260.6 58.0941 260.46 59.3041 259.85C59.6341 259.69 59.914 259.43 60.244 259.26C61.034 258.85 61.8641 258.97 62.4641 259.54C63.0541 260.11 63.2241 260.99 62.8941 261.75V261.77Z" fill="#895521"/>
<path d="M77.3041 264.22C76.6541 264.5 75.9142 264.3 75.4542 263.63C75.1442 263.18 74.9042 262.7 74.7142 262.19C73.9042 260.01 73.1142 257.82 72.3242 255.63C72.1642 255.18 72.0042 254.73 71.8342 254.24C71.7942 254.12 71.6841 254.03 71.5541 254.02C71.4241 254 71.3041 254.06 71.2341 254.17C70.9941 254.54 70.9041 254.92 70.7641 255.26C69.7741 257.66 68.8042 260.07 67.8242 262.48C67.6442 262.93 67.4341 263.37 67.1941 263.8C66.6641 264.69 65.7741 264.99 64.9941 264.59C64.2541 264.22 63.9941 263.42 64.2941 262.49C64.3441 262.34 64.4241 262.2 64.4941 262.05C65.6041 259.35 66.7042 256.64 67.8342 253.94C68.3742 252.64 68.9641 251.36 69.5541 250.09C69.7541 249.65 70.0041 249.22 70.2941 248.83C71.2941 247.5 72.7941 247.61 73.5541 249.07C73.7741 249.5 73.9141 249.97 74.0641 250.44C74.7041 252.4 75.2942 254.37 75.9642 256.31C76.5642 258.05 77.2641 259.75 77.9141 261.47C78.0341 261.77 78.1841 262.07 78.2541 262.38C78.4341 263.21 78.0641 263.92 77.3141 264.24L77.3041 264.22Z" fill="#895521"/>
<path d="M91.4541 250.1C90.8341 253.19 89.9741 256.2 88.5741 259.03C87.9241 260.35 87.1741 261.6 86.1741 262.68C85.3041 263.65 84.1841 264.37 82.9341 264.77C82.4141 264.94 81.8741 265.01 81.3341 264.98C80.6041 264.95 79.994 264.41 79.874 263.69C79.784 263.03 80.1141 262.38 80.7141 262.07C81.0041 261.92 81.314 261.82 81.634 261.75C82.714 261.56 83.484 260.9 84.144 260.08C84.654 259.46 85.0841 258.78 85.4341 258.06C85.4941 257.93 85.474 257.78 85.384 257.68C85.294 257.57 85.154 257.53 85.014 257.56C84.874 257.6 84.7341 257.66 84.5941 257.68C82.8541 257.98 81.4941 257.34 80.6741 255.77C80.4341 255.29 80.254 254.78 80.114 254.25C79.724 252.82 79.724 251.36 79.744 249.9C79.744 249.74 79.7641 249.58 79.7941 249.42C79.9541 248.6 80.5941 248.03 81.3541 248.03C82.1141 248.03 82.744 248.59 82.904 249.43C82.974 249.8 82.9441 250.18 82.9641 250.56C83.0041 251.26 83.0341 251.97 83.0841 252.67C83.1141 253.21 83.274 253.74 83.534 254.21C83.654 254.43 83.984 254.64 84.514 254.64C85.274 254.68 85.6241 254.29 86.0741 253.81C87.1341 252.68 87.5041 250.87 88.0941 249.46C88.2641 249.06 88.414 248.65 88.654 248.29C89.024 247.77 89.6641 247.52 90.2941 247.66C90.9141 247.81 91.384 248.32 91.484 248.95C91.534 249.33 91.5241 249.71 91.4441 250.08L91.4541 250.1Z" fill="#895521"/>
<path d="M102.394 249.07C102.394 249.81 101.864 250.43 101.144 250.56C100.554 250.66 99.964 250.72 99.374 250.76C98.834 250.81 98.294 250.82 97.754 250.86C96.994 250.92 96.904 250.99 96.824 251.7C96.584 253.8 96.354 255.9 96.124 257.99C95.974 259.33 95.844 260.68 95.684 262.03C95.634 262.51 95.534 262.99 95.374 263.45C95.154 264.06 94.424 264.45 93.814 264.39C93.144 264.33 92.5841 263.84 92.4641 263.17C92.4141 262.8 92.4041 262.42 92.4641 262.04C92.7641 259.24 93.074 256.44 93.384 253.65C93.514 252.52 93.644 251.39 93.774 250.26C93.804 249.99 93.844 249.72 93.894 249.46C94.154 248.25 94.604 247.84 95.874 247.69C96.304 247.64 96.744 247.64 97.174 247.63C97.604 247.62 98.0441 247.59 98.4741 247.59C99.0641 247.55 99.664 247.48 100.254 247.46C100.614 247.46 100.974 247.49 101.324 247.57C102.084 247.76 102.424 248.33 102.404 249.07H102.394Z" fill="#895521"/>
<path d="M116.104 251.92C115.894 255.16 115.784 258.41 115.824 261.66C115.834 261.93 115.824 262.2 115.784 262.47C115.654 263.28 114.984 263.87 114.234 263.88C113.554 263.88 112.754 263.46 112.704 262.64L112.654 260.64C112.624 259.96 112.654 259.35 112.494 259.08C112.474 259.03 112.414 259 112.364 259.02C111.884 259.23 111.744 259.63 111.494 259.93C110.834 260.72 110.164 261.49 109.364 262.15C108.874 262.57 108.324 262.89 107.724 263.12C106.434 263.6 104.984 263.14 104.214 262C103.794 261.38 103.564 260.69 103.424 259.95C103.174 258.67 103.104 257.37 103.224 256.07C103.414 254.08 103.654 252.09 103.894 250.1C103.934 249.72 104.014 249.35 104.144 248.99C104.384 248.3 105.084 247.87 105.804 247.97C106.474 248.05 107.014 248.56 107.114 249.22C107.164 249.59 107.154 249.97 107.104 250.34C106.924 251.95 106.694 253.56 106.534 255.18C106.394 256.58 106.294 257.99 106.644 259.38C106.744 259.79 107.384 259.89 107.734 259.62C108.544 258.97 109.004 258.21 109.604 257.37C110.904 255.55 111.684 253.52 112.514 251.45C112.694 251 112.854 250.53 113.084 250.11C113.484 249.4 114.124 249.13 114.854 249.27C115.524 249.41 116.034 249.99 116.124 250.77C116.154 251.15 116.154 251.53 116.124 251.9L116.104 251.92Z" fill="#895521"/>
<path d="M375.014 37.1597C362.254 31.7197 349.464 26.3197 336.694 20.8997C336.694 20.8997 336.694 20.8997 336.694 20.8897C323.564 15.3197 310.474 9.6897 297.304 4.2197C287.534 0.159703 278.914 3.63967 274.754 13.3097C268.214 28.5097 261.734 43.7397 255.394 59.0197C251.664 68.0097 255.234 76.4897 264.164 80.4097C270.104 83.0197 276.104 85.5197 282.084 88.0297C285.804 89.5897 288.354 92.1297 289.704 96.0397C291.114 100.12 292.884 104.08 294.534 108.08C296.224 112.18 298.594 113.26 302.684 111.68C306.844 110.08 310.974 108.42 315.084 106.69C318.824 105.11 322.474 105.14 326.194 106.74C331.804 109.16 337.434 111.53 343.074 113.89C353.254 118.15 362.064 114.55 366.414 104.34C372.544 89.9297 378.654 75.5197 384.744 61.0897C389.234 50.4497 385.674 41.7097 375.004 37.1597H375.014Z" fill="white"/>
<path d="M376.254 35.0298C363.494 29.5898 350.704 24.1898 337.934 18.7698L338.824 22.1498C339.294 21.0298 339.284 19.3198 337.934 18.7498C324.914 13.2298 311.934 7.63982 298.874 2.20982C294.244 0.279821 289.164 -0.700154 284.264 0.859846C279.364 2.41985 275.724 5.97979 273.414 10.3698C271.904 13.2498 270.764 16.3598 269.484 19.3498C268.114 22.5398 266.754 25.7398 265.384 28.9398C262.644 35.3798 259.914 41.8198 257.214 48.2798C255.844 51.5598 254.464 54.8398 253.104 58.1298C252.094 60.5798 251.484 63.1898 251.464 65.8498C251.424 70.7098 253.494 75.4198 257.064 78.7098C259.054 80.5498 261.344 81.8498 263.814 82.9398C266.984 84.3298 270.164 85.6798 273.354 87.0198C276.364 88.2898 279.594 89.3598 282.454 90.9398C284.404 92.0298 285.904 93.5798 286.874 95.5998C287.454 96.8098 287.834 98.1398 288.314 99.3998C288.944 101.05 289.614 102.68 290.294 104.3C291.434 107.02 292.314 110.12 294.244 112.4C298.224 117.09 304.364 113.7 308.894 111.88C311.994 110.64 315.144 108.93 318.414 108.21C321.684 107.49 324.364 108.63 327.214 109.85C330.444 111.23 333.684 112.6 336.924 113.97C339.744 115.16 342.554 116.54 345.514 117.34C350.194 118.6 355.204 118.34 359.524 116.03C364.064 113.6 366.954 109.29 368.924 104.67C374.374 91.8598 379.814 79.0298 385.234 66.2098C387.344 61.2298 389.634 56.2298 389.004 50.6698C388.484 46.0898 386.284 41.9598 382.744 38.9898C380.774 37.3398 378.604 36.0398 376.244 35.0198C375.024 34.4898 373.594 34.6598 372.864 35.9098C372.254 36.9598 372.524 38.7598 373.754 39.2898C377.614 40.9598 381.144 43.3698 383.004 47.1598C384.654 50.5098 384.374 54.6198 383.134 58.3498C382.194 61.1898 380.874 63.9198 379.714 66.6698C378.434 69.7098 377.144 72.7398 375.864 75.7798C373.294 81.8498 370.724 87.9199 368.144 93.9899C366.854 97.0199 365.584 100.07 364.274 103.09C363.384 105.14 362.294 107.15 360.774 108.81C358.114 111.74 354.654 113.25 350.794 113.17C348.604 113.12 346.464 112.57 344.424 111.79C341.464 110.65 338.554 109.35 335.634 108.11C329.714 105.61 323.754 102 317.094 103.45C314.044 104.11 311.124 105.69 308.234 106.85C306.754 107.44 305.274 108.03 303.794 108.61C302.594 109.08 301.354 109.68 300.054 109.88C300.004 109.88 299.314 109.93 299.024 109.88C299.424 109.94 298.904 109.84 298.814 109.8C298.394 109.63 299.284 110.1 298.614 109.71C298.004 109.36 297.694 108.91 297.264 108.12C295.854 105.54 294.864 102.6 293.764 99.8698C292.664 97.1398 291.974 94.3098 290.444 91.8798C289.134 89.7998 287.334 88.0798 285.224 86.8398C282.634 85.3198 279.644 84.3498 276.884 83.1898C273.944 81.9498 270.994 80.7098 268.064 79.4398C263.744 77.5698 259.564 75.5698 257.464 71.0798C255.574 67.0598 256.474 62.7598 258.134 58.7498C263.184 46.5698 268.334 34.4198 273.534 22.2998C274.784 19.3798 275.944 16.3798 277.334 13.5198C278.294 11.5398 279.504 9.73985 281.124 8.23985C283.954 5.62985 287.664 4.62979 291.454 5.11979C294.074 5.45979 296.504 6.53985 298.914 7.54985C301.934 8.80985 304.944 10.0698 307.954 11.3498C314.064 13.9298 320.164 16.5298 326.264 19.1298C329.314 20.4298 332.364 21.7298 335.414 23.0198L334.524 19.6398C334.054 20.7598 334.064 22.4698 335.414 23.0398C348.184 28.4598 360.964 33.8598 373.734 39.2998C374.964 39.8198 376.384 39.6698 377.114 38.4098C377.724 37.3698 377.464 35.5498 376.224 35.0298H376.254Z" fill="#034360"/>
<path d="M330.064 53.6598C333.184 54.9798 336.014 56.0798 338.754 57.3698C342.054 58.9298 342.474 61.3098 340.074 63.9298C339.674 64.3698 338.974 64.8298 338.964 65.2898C338.874 69.4498 335.944 72.1098 333.914 75.2598C333.534 75.8598 333.294 76.5698 333.104 77.2598C332.434 79.6698 330.734 80.2198 328.674 79.3898C322.784 77.0098 316.894 74.5998 311.164 71.8698C310.204 71.4098 309.264 68.9898 309.644 67.9498C311.504 62.8198 313.204 57.4598 316.154 52.9598C318.074 50.0198 322.084 48.5098 325.014 46.1698C326.934 44.6298 328.834 42.9498 330.264 40.9798C331.454 39.3398 332.494 37.2198 334.544 38.6798C335.854 39.6098 337.034 42.1898 336.684 43.6398C336.114 45.9698 334.274 47.9998 332.874 50.1098C332.114 51.2498 331.174 52.2798 330.074 53.6598H330.064Z" fill="#82CCF1"/>
<path d="M310.784 60.55C309.844 62.78 308.974 65.04 307.934 67.22C306.324 70.59 304.684 70.9499 300.354 69.0599C296.384 67.3299 295.594 65.89 296.994 62.39C298.694 58.13 300.474 53.91 302.364 49.73C303.984 46.15 305.494 45.8 309.814 47.65C314.024 49.45 314.744 50.82 313.314 54.57C312.544 56.59 311.634 58.56 310.794 60.55C310.794 60.55 310.794 60.55 310.784 60.55Z" fill="#82CCF1"/>
<path d="M78.9441 146.87C79.0441 147.93 60.6741 156.85 60.6741 156.85L46.9341 177.22L45.6941 190.79L59.634 196.76L74.614 181.41L101.764 171.31L78.9441 146.88V146.87Z" fill="#82CCF1"/>
<path d="M73.154 146.73C66.704 149.21 60.7041 152.87 55.9241 157.91C50.6441 163.48 46.7841 170.74 44.8241 178.15C43.0141 184.99 43.034 193.43 49.864 197.49C53.324 199.55 57.9341 200.21 61.7241 198.7C65.0241 197.38 67.094 194.67 68.994 191.79C71.324 188.25 73.6841 184.86 77.3341 182.55C80.9841 180.24 85.544 179.04 90.004 178.79C93.204 178.61 93.224 173.61 90.004 173.79C81.934 174.25 74.1041 177.15 68.8041 183.48C66.7641 185.91 65.084 189 63.254 191.33C61.424 193.66 59.4141 194.78 56.2841 194.48C53.1541 194.18 50.5641 192.48 49.4641 189.86C49.0641 188.91 48.804 187.42 48.764 186.25C48.714 184.78 48.8341 183.3 49.1041 181.86C50.3141 175.41 53.3241 168.87 57.4341 163.76C59.9741 160.59 63.0341 157.86 66.4441 155.66C69.0241 154 72.0341 152.5 74.4741 151.57C75.7341 151.09 76.6041 149.89 76.2241 148.49C75.8941 147.29 74.414 146.26 73.144 146.74L73.154 146.73Z" fill="#034360"/>
</svg>
